<?xml version="1.0" encoding="UTF-8"?>
<svg xmlns="http://www.w3.org/2000/svg" version="1.1" viewBox="0 0 272 92">
  <defs>
    <style>
      .cls-1 {
        fill: #fff;
      }
    </style>
  </defs>
  <!-- Generator: Adobe Illustrator 28.7.1, SVG Export Plug-In . SVG Version: 1.2.0 Build 142)  -->
  <g>
    <g id="Capa_1">
      <g>
        <path class="cls-1" d="M226.17,32.84h0c0,.53.43.95.95.95h5.73c4.04,0,7.32,3.28,7.32,7.32h0c0,4.04-3.28,7.32-7.32,7.32h-11.87c-.66,0-1.19-.53-1.19-1.19v-3.99c0-.66.53-1.19,1.19-1.19h11.87c.53,0,.95-.43.95-.95h0c0-.53-.43-.95-.95-.95h-5.73c-4.04,0-7.32-3.28-7.32-7.32s3.28-7.32,7.32-7.32h11.86c.66,0,1.19.53,1.19,1.19v3.99c0,.66-.53,1.19-1.19,1.19h-11.86c-.53,0-.95.43-.95.95"/>
        <path class="cls-1" d="M67.55,26.7h0c-1.77-.88-3.81-1.31-5.96-1.16-5.67.41-10.24,5.05-10.58,10.72-.4,6.65,4.87,12.17,11.44,12.17,1.83,0,3.56-.43,5.09-1.19,0,.66.53,1.19,1.19,1.19h3.99c.66,0,1.19-.53,1.19-1.19v-20.54c0-.66-.53-1.19-1.19-1.19h-3.99c-.66,0-1.19.53-1.19,1.19M62.45,42.07c-2.81,0-5.09-2.28-5.09-5.09s2.28-5.09,5.09-5.09,5.09,2.28,5.09,5.09-2.28,5.09-5.09,5.09"/>
        <path class="cls-1" d="M161.31,26.7h0c-1.77-.88-3.81-1.31-5.96-1.16-5.67.41-10.24,5.05-10.58,10.72-.4,6.65,4.87,12.17,11.44,12.17,1.83,0,3.56-.43,5.09-1.19,0,.66.53,1.19,1.19,1.19h3.99c.66,0,1.19-.53,1.19-1.19v-20.54c0-.66-.53-1.19-1.19-1.19h-3.99c-.66,0-1.19.53-1.19,1.19M156.88,42.03c-3.33.42-6.13-2.38-5.71-5.71.29-2.27,2.12-4.1,4.39-4.39,3.33-.42,6.13,2.38,5.71,5.71-.29,2.27-2.12,4.1-4.39,4.39"/>
        <path class="cls-1" d="M211.34,26.7h0c-1.77-.88-3.81-1.31-5.96-1.16-5.67.41-10.24,5.05-10.58,10.72-.4,6.65,4.87,12.17,11.44,12.17,1.83,0,3.56-.43,5.09-1.19,0,.66.53,1.19,1.19,1.19h3.99c.66,0,1.19-.53,1.19-1.19v-20.54c0-.66-.53-1.19-1.19-1.19h-3.99c-.66,0-1.19.53-1.19,1.19M206.25,42.07c-2.81,0-5.09-2.28-5.09-5.09s2.28-5.09,5.09-5.09,5.09,2.28,5.09,5.09-2.28,5.09-5.09,5.09"/>
        <path class="cls-1" d="M186.33,18.24v8.47c-1.77-.88-3.81-1.32-5.96-1.16-5.67.41-10.24,5.05-10.58,10.72-.4,6.65,4.87,12.17,11.44,12.17,1.83,0,3.56-.43,5.09-1.19,0,.66.53,1.19,1.19,1.19h3.99c.66,0,1.19-.53,1.19-1.19v-29.01c0-.66-.53-1.19-1.19-1.19h-3.99c-.66,0-1.19.53-1.19,1.19M181.89,42.03c-3.33.42-6.13-2.38-5.71-5.71.29-2.27,2.12-4.1,4.39-4.39,3.33-.42,6.13,2.38,5.71,5.71-.29,2.27-2.12,4.1-4.39,4.39"/>
        <path class="cls-1" d="M47.63,41.32l2.87,2.87c.5.5.46,1.33-.09,1.77-1.96,1.55-4.43,2.48-7.12,2.48-3.17,0-6.03-1.28-8.1-3.36-2.08-2.07-3.36-4.94-3.36-8.1s1.28-6.03,3.36-8.1c2.07-2.08,4.94-3.36,8.1-3.36,2.69,0,5.17.93,7.12,2.48.55.44.59,1.27.09,1.77l-2.87,2.87c-.4.4-1.03.44-1.5.12-.81-.55-1.79-.87-2.85-.87-1.41,0-2.68.57-3.6,1.49-.92.92-1.49,2.19-1.49,3.6s.57,2.68,1.49,3.6c.92.92,2.19,1.49,3.6,1.49,1.06,0,2.04-.32,2.85-.87.47-.32,1.1-.28,1.5.12"/>
        <path class="cls-1" d="M127.83,26.7h0c-1.77-.88-3.81-1.31-5.95-1.16-5.67.41-10.24,5.05-10.58,10.72-.4,6.65,4.87,12.17,11.44,12.17,1.83,0,3.56-.43,5.09-1.19,0,.66.53,1.19,1.19,1.19h3.99c.66,0,1.19-.53,1.19-1.19v-20.54c0-.66-.53-1.19-1.19-1.19h-3.99c-.66,0-1.19.53-1.19,1.19M123.4,42.03c-3.33.42-6.13-2.38-5.71-5.71.29-2.27,2.12-4.1,4.39-4.39,3.33-.42,6.13,2.38,5.71,5.71-.29,2.27-2.12,4.1-4.39,4.39"/>
        <path class="cls-1" d="M90.02,26.8v5.24c0,.6-.44,1.11-1.04,1.18-3.24.39-6.6,2.49-6.6,5.03v9c0,.66-.53,1.19-1.19,1.19h-3.99c-.66,0-1.19-.53-1.19-1.19v-20.54c0-.66.53-1.19,1.19-1.19h3.99c.66,0,1.19.53,1.19,1.19v3.9c0-2.46,3.16-4.52,6.3-4.99.71-.11,1.34.46,1.34,1.18"/>
        <path class="cls-1" d="M107.92,41.32l2.87,2.87c.5.5.46,1.33-.09,1.77-1.96,1.55-4.43,2.48-7.12,2.48-3.17,0-6.03-1.28-8.1-3.36-2.08-2.07-3.36-4.94-3.36-8.1s1.28-6.03,3.36-8.1c2.07-2.08,4.94-3.36,8.1-3.36,2.69,0,5.17.93,7.12,2.48.55.44.59,1.27.09,1.77l-2.87,2.87c-.4.4-1.03.44-1.5.12-.81-.55-1.79-.87-2.85-.87-1.41,0-2.68.57-3.6,1.49-.92.92-1.49,2.19-1.49,3.6s.57,2.68,1.49,3.6c.92.92,2.19,1.49,3.6,1.49,1.06,0,2.04-.32,2.85-.87.47-.32,1.1-.28,1.5.12"/>
        <path class="cls-1" d="M240.18,54.72h0c0,2.86-2.32,5.18-5.18,5.18h-96.57c2.38-1.5,4.26-3.73,5.33-6.37h95.23c.66,0,1.19.53,1.19,1.19"/>
        <g>
          <path class="cls-1" d="M141.47,25.51h-3.99c-.66,0-1.19.53-1.19,1.19v21.73c0,2.81-2.28,5.09-5.09,5.09h0s-98.19,0-98.19,0c-.66,0-1.19.53-1.19,1.19h0c0,2.86,2.32,5.18,5.18,5.18h94.29c6.29-.05,11.38-5.16,11.38-11.46v-21.73c0-.66-.53-1.19-1.19-1.19Z"/>
          <rect class="cls-1" x="136.29" y="17.05" width="6.37" height="6.37" rx="1.19" ry="1.19"/>
        </g>
        <path class="cls-1" d="M99.63,68.81v-.62c0-.22-.18-.4-.4-.4h-.66c-.22,0-.4.18-.4.4v6.25c0,.22.18.4.4.4h.66c.22,0,.4-.18.4-.4v-3.31c0-.72.15-1.22.44-1.51.25-.24.66-.39,1.29-.42.21-.01.38-.19.38-.4v-.7c0-.24-.21-.43-.44-.4-.3.04-.58.13-.82.27-.35.2-.64.48-.85.84"/>
        <path class="cls-1" d="M109.37,68.11c-.52-.29-1.11-.43-1.78-.43s-1.3.15-1.83.45c-.53.3-.95.72-1.24,1.27-.29.55-.44,1.19-.44,1.91s.15,1.36.45,1.91c.3.55.72.98,1.25,1.28.53.3,1.14.45,1.81.45.83,0,1.52-.21,2.08-.62s.94-.94,1.16-1.59h-1.57c-.32.66-.88.98-1.66.98-.55,0-1.01-.17-1.38-.51-.37-.34-.58-.79-.63-1.35h5.02c.21,0,.38-.16.4-.37,0-.11.01-.23.01-.35,0-.68-.14-1.28-.43-1.81-.29-.52-.69-.93-1.21-1.22M105.6,70.68c.07-.54.28-.98.64-1.3.36-.32.79-.48,1.29-.48.55,0,1.02.16,1.39.49.37.32.57.75.58,1.29h-3.9Z"/>
        <path class="cls-1" d="M119.12,68.81c-.25-.32-.58-.59-.99-.81-.41-.22-.9-.33-1.45-.33-.61,0-1.17.15-1.68.45-.51.3-.91.73-1.2,1.27-.29.55-.44,1.17-.44,1.88s.15,1.34.44,1.9c.29.56.69.99,1.2,1.3.5.31,1.06.47,1.66.47.55,0,1.03-.11,1.46-.33.43-.22.76-.5,1.01-.83v.65c0,.22.18.4.4.4h.67c.22,0,.4-.18.4-.4v-6.25c0-.22-.18-.4-.4-.4h-.67c-.22,0-.4.18-.4.4v.62ZM118.82,72.58c-.2.36-.46.64-.79.82-.32.19-.67.28-1.05.28s-.71-.1-1.04-.29c-.33-.19-.59-.47-.79-.84-.2-.37-.3-.79-.3-1.28s.1-.91.3-1.26c.2-.35.46-.62.79-.81.32-.18.67-.27,1.05-.27s.72.09,1.05.28c.32.19.59.46.79.82.2.36.3.78.3,1.27s-.1.91-.3,1.27"/>
        <path class="cls-1" d="M181.27,68.81c-.25-.32-.58-.59-.99-.81-.41-.22-.9-.33-1.45-.33-.61,0-1.17.15-1.68.45-.51.3-.91.73-1.2,1.27-.29.55-.44,1.17-.44,1.88s.15,1.34.44,1.9c.29.56.69.99,1.19,1.3.5.31,1.06.47,1.66.47.55,0,1.03-.11,1.46-.33.43-.22.76-.5,1.01-.83v.65c0,.22.18.4.4.4h.67c.22,0,.4-.18.4-.4v-6.25c0-.22-.18-.4-.4-.4h-.67c-.22,0-.4.18-.4.4v.63ZM180.97,72.58c-.2.36-.46.64-.79.82-.32.19-.67.28-1.05.28s-.71-.1-1.04-.29c-.33-.19-.59-.47-.79-.84-.2-.37-.3-.79-.3-1.28s.1-.91.3-1.26c.2-.35.46-.62.79-.81.32-.18.67-.27,1.05-.27s.72.09,1.05.28c.32.19.59.46.79.82.2.36.3.78.3,1.27s-.1.91-.3,1.27"/>
        <path class="cls-1" d="M130.56,68.11c-.52-.29-1.11-.43-1.78-.43s-1.3.15-1.83.45c-.53.3-.95.72-1.24,1.27-.29.55-.44,1.19-.44,1.91s.15,1.36.45,1.91c.3.55.72.98,1.25,1.28.53.3,1.14.45,1.81.45.83,0,1.52-.21,2.08-.62.45-.33.78-.73,1.01-1.21.08-.18-.05-.38-.24-.38h-.95c-.13,0-.26.07-.33.18-.33.54-.85.81-1.56.81-.55,0-1.01-.17-1.38-.51-.37-.34-.58-.79-.63-1.35h5.02c.21,0,.38-.16.4-.37,0-.11.01-.23.01-.35,0-.68-.14-1.28-.43-1.81-.29-.52-.69-.93-1.21-1.22M126.79,70.68c.07-.54.28-.98.64-1.3.36-.32.79-.48,1.29-.48.55,0,1.02.16,1.39.49.37.32.57.75.58,1.29h-3.9Z"/>
        <path class="cls-1" d="M137.63,64.99c-.26,0-.49.09-.66.27-.18.18-.27.4-.27.66s.09.49.27.66c.18.18.4.27.66.27s.47-.09.65-.27c.18-.18.27-.4.27-.66s-.09-.49-.27-.66c-.18-.18-.4-.27-.65-.27"/>
        <path class="cls-1" d="M137.29,74.83h.66c.22,0,.4-.18.4-.4v-6.25c0-.22-.18-.4-.4-.4h-.66c-.22,0-.4.18-.4.4v6.25c0,.22.18.4.4.4"/>
        <path class="cls-1" d="M145.74,68.02c-.44-.23-.94-.35-1.49-.35-.42,0-.81.08-1.18.24-.37.16-.68.39-.91.68v-.41c0-.22-.18-.4-.4-.4h-.66c-.22,0-.4.18-.4.4v6.25c0,.22.18.4.4.4h.66c.22,0,.4-.18.4-.4v-3.54c0-.63.16-1.11.48-1.45.32-.34.75-.5,1.3-.5s.98.17,1.29.5c.32.34.47.82.47,1.45v3.54c0,.22.18.4.4.4h.65c.22,0,.4-.18.4-.4v-3.76c0-.64-.12-1.18-.37-1.64-.25-.45-.59-.79-1.03-1.02"/>
        <path class="cls-1" d="M154.52,68.02c-.44-.23-.94-.35-1.49-.35-.42,0-.81.08-1.18.24-.37.16-.68.39-.91.68v-.41c0-.22-.18-.4-.4-.4h-.66c-.22,0-.4.18-.4.4v6.25c0,.22.18.4.4.4h.66c.22,0,.4-.18.4-.4v-3.54c0-.63.16-1.11.48-1.45.32-.34.75-.5,1.3-.5s.98.17,1.29.5c.32.34.47.82.47,1.45v3.54c0,.22.18.4.4.4h.65c.22,0,.4-.18.4-.4v-3.76c0-.64-.12-1.18-.37-1.64-.25-.45-.59-.79-1.03-1.02"/>
        <path class="cls-1" d="M163.67,68.12c-.55-.3-1.15-.45-1.83-.45s-1.28.15-1.83.45c-.55.3-.98.72-1.29,1.28-.32.55-.47,1.19-.47,1.9s.15,1.36.46,1.91c.31.55.73.98,1.27,1.28.54.3,1.14.45,1.8.45s1.29-.15,1.85-.45c.56-.3,1-.73,1.32-1.28.32-.55.49-1.19.49-1.9s-.16-1.35-.47-1.9c-.32-.55-.75-.98-1.29-1.28M163.64,72.61c-.2.36-.47.63-.8.81-.33.18-.68.27-1.05.27-.59,0-1.08-.21-1.46-.62-.39-.41-.58-1-.58-1.76,0-.51.09-.94.28-1.3.19-.35.44-.62.76-.8.32-.18.67-.27,1.04-.27s.72.09,1.05.27c.32.18.58.45.78.8.2.35.29.79.29,1.3s-.1.95-.31,1.3"/>
        <path class="cls-1" d="M170.47,73.53l-1.9-5.47c-.06-.16-.21-.27-.38-.27h-.7c-.28,0-.47.28-.37.54l2.37,6.25c.06.15.21.26.37.26h1.19c.17,0,.31-.1.37-.26l2.38-6.25c.1-.26-.09-.54-.37-.54h-.69c-.17,0-.32.11-.38.27l-1.9,5.47Z"/>
        <path class="cls-1" d="M89.7,69.38c.29-.55.7-.97,1.21-1.27.52-.3,1.11-.44,1.78-.44.85,0,1.55.2,2.1.6.46.34.8.79,1.02,1.37.06.17-.08.35-.26.35h-.94c-.16,0-.29-.1-.37-.24-.12-.24-.29-.43-.5-.58-.28-.19-.63-.29-1.06-.29-.59,0-1.07.21-1.42.63-.35.42-.53,1.01-.53,1.76s.18,1.34.53,1.77c.35.42.82.64,1.42.64.74,0,1.26-.29,1.56-.87.07-.14.21-.24.37-.24h.92c.2,0,.32.2.25.38-.22.53-.56.97-1.01,1.31-.56.42-1.25.63-2.09.63-.67,0-1.26-.15-1.78-.45-.52-.3-.92-.73-1.21-1.27-.29-.55-.44-1.18-.44-1.9s.15-1.35.44-1.9"/>
      </g>
    </g>
  </g>
</svg>