<?xml version="1.0" encoding="UTF-8"?>
<svg xmlns="http://www.w3.org/2000/svg" version="1.1" viewBox="0 0 1080 445.93">
  <defs>
    <style>
      .cls-1 {
        fill: #3055b9;
      }
    </style>
  </defs>
  <!-- Generator: Adobe Illustrator 28.7.1, SVG Export Plug-In . SVG Version: 1.2.0 Build 142)  -->
  <g>
    <g id="Capa_1">
      <g>
        <path class="cls-1" d="M985.95,157.87h0c0,2.61,2.11,4.72,4.72,4.72h28.35c20,0,36.21,16.21,36.21,36.21h0c0,20-16.21,36.21-36.21,36.21h-58.68c-3.25,0-5.88-2.63-5.88-5.88v-19.73c0-3.25,2.63-5.88,5.88-5.88h58.68c2.61,0,4.72-2.11,4.72-4.72h0c0-2.61-2.11-4.72-4.72-4.72h-28.35c-20,0-36.21-16.21-36.21-36.21s16.21-36.21,36.21-36.21h58.68c3.25,0,5.88,2.63,5.88,5.88v19.73c0,3.25-2.63,5.88-5.88,5.88h-58.68c-2.61,0-4.72,2.11-4.72,4.72"/>
        <path class="cls-1" d="M201.45,127.54v.02c-8.76-4.37-18.84-6.52-29.45-5.74-28.04,2.05-50.63,24.96-52.32,53.02-1.98,32.9,24.11,60.18,56.58,60.18,9.04,0,17.61-2.12,25.19-5.88,0,3.25,2.63,5.88,5.88,5.88h19.73c3.25,0,5.88-2.63,5.88-5.88v-101.6c0-3.25-2.63-5.88-5.88-5.88h-19.73c-3.25,0-5.88,2.63-5.88,5.88M176.26,203.53c-13.92,0-25.19-11.27-25.19-25.19s11.27-25.19,25.19-25.19,25.19,11.27,25.19,25.19-11.27,25.19-25.19,25.19"/>
        <path class="cls-1" d="M665.17,127.54v.02c-8.76-4.37-18.84-6.52-29.45-5.74-28.04,2.05-50.63,24.96-52.32,53.02-1.98,32.9,24.11,60.18,56.58,60.18,9.04,0,17.61-2.12,25.19-5.88,0,3.25,2.63,5.88,5.88,5.88h19.73c3.25,0,5.88-2.63,5.88-5.88v-101.6c0-3.25-2.63-5.88-5.88-5.88h-19.73c-3.25,0-5.88,2.63-5.88,5.88M643.25,203.32c-16.49,2.07-30.33-11.77-28.26-28.25,1.41-11.23,10.48-20.3,21.71-21.71,16.49-2.07,30.33,11.77,28.26,28.26-1.41,11.23-10.48,20.3-21.71,21.71"/>
        <path class="cls-1" d="M912.61,127.54v.02c-8.76-4.37-18.84-6.52-29.45-5.74-28.04,2.05-50.63,24.96-52.32,53.02-1.98,32.9,24.11,60.18,56.58,60.18,9.04,0,17.61-2.12,25.19-5.88,0,3.25,2.63,5.88,5.88,5.88h19.73c3.25,0,5.88-2.63,5.88-5.88v-101.6c0-3.25-2.63-5.88-5.88-5.88h-19.73c-3.25,0-5.88,2.63-5.88,5.88M887.42,203.53c-13.92,0-25.19-11.27-25.19-25.19s11.27-25.19,25.19-25.19,25.19,11.27,25.19,25.19-11.27,25.19-25.19,25.19"/>
        <path class="cls-1" d="M788.89,85.69v41.87c-8.76-4.37-18.84-6.52-29.45-5.74-28.04,2.05-50.63,24.96-52.32,53.02-1.98,32.9,24.11,60.18,56.58,60.18,9.04,0,17.61-2.12,25.19-5.88,0,3.25,2.63,5.88,5.88,5.88h19.73c3.25,0,5.88-2.63,5.88-5.88V85.69c0-3.25-2.63-5.88-5.88-5.88h-19.73c-3.25,0-5.88,2.63-5.88,5.88M766.97,203.32c-16.49,2.07-30.33-11.77-28.26-28.25,1.41-11.23,10.48-20.3,21.71-21.71,16.49-2.07,30.33,11.77,28.26,28.26-1.41,11.23-10.48,20.3-21.71,21.71"/>
        <path class="cls-1" d="M102.95,199.82l14.19,14.19c2.47,2.47,2.28,6.57-.46,8.74-9.68,7.68-21.92,12.27-35.23,12.27-15.65,0-29.83-6.34-40.08-16.61-10.27-10.25-16.6-24.42-16.6-40.08s6.34-29.83,16.6-40.08c10.25-10.27,24.42-16.6,40.08-16.6,13.31,0,25.55,4.58,35.23,12.27,2.74,2.17,2.93,6.27.46,8.74l-14.19,14.19c-1.99,1.99-5.07,2.16-7.41.59-4.03-2.72-8.88-4.3-14.1-4.3-6.96,0-13.24,2.81-17.81,7.38-4.57,4.55-7.38,10.85-7.38,17.81s2.81,13.26,7.38,17.81c4.57,4.57,10.85,7.38,17.81,7.38,5.22,0,10.07-1.58,14.1-4.3,2.33-1.57,5.42-1.4,7.41.59"/>
        <path class="cls-1" d="M499.6,127.54v.02c-8.76-4.37-18.84-6.52-29.45-5.74-28.04,2.05-50.63,24.96-52.32,53.02-1.98,32.9,24.11,60.18,56.58,60.18,9.04,0,17.61-2.12,25.19-5.88,0,3.25,2.63,5.88,5.88,5.88h19.73c3.25,0,5.88-2.63,5.88-5.88v-101.6c0-3.25-2.63-5.88-5.88-5.88h-19.73c-3.25,0-5.88,2.63-5.88,5.88M477.68,203.32c-16.48,2.07-30.33-11.77-28.26-28.25,1.41-11.23,10.48-20.3,21.71-21.71,16.49-2.07,30.33,11.77,28.26,28.26-1.41,11.23-10.48,20.3-21.71,21.71"/>
        <path class="cls-1" d="M312.59,128v25.92c0,2.96-2.2,5.47-5.14,5.82-16.04,1.9-32.65,12.31-32.65,24.9v44.5c0,3.25-2.63,5.88-5.88,5.88h-19.73c-3.25,0-5.88-2.63-5.88-5.88v-101.6c0-3.25,2.63-5.88,5.88-5.88h19.73c3.25,0,5.88,2.63,5.88,5.88v19.31c0-12.18,15.61-22.33,31.17-24.68,3.5-.53,6.62,2.29,6.62,5.83"/>
        <path class="cls-1" d="M401.11,199.82l14.19,14.19c2.47,2.47,2.28,6.57-.46,8.74-9.68,7.68-21.92,12.27-35.23,12.27-15.65,0-29.83-6.34-40.08-16.61-10.27-10.25-16.61-24.42-16.61-40.08s6.34-29.83,16.61-40.08c10.25-10.27,24.42-16.6,40.08-16.6,13.31,0,25.55,4.58,35.23,12.27,2.74,2.17,2.93,6.27.46,8.74l-14.19,14.19c-1.99,1.99-5.08,2.16-7.41.59-4.03-2.72-8.88-4.3-14.1-4.3-6.96,0-13.24,2.81-17.81,7.38-4.57,4.55-7.38,10.85-7.38,17.81s2.81,13.26,7.38,17.81c4.57,4.57,10.85,7.38,17.81,7.38,5.22,0,10.07-1.58,14.1-4.3,2.33-1.57,5.42-1.4,7.41.59"/>
        <path class="cls-1" d="M1055.23,266.09h0c0,14.14-11.47,25.61-25.61,25.61h-477.61c11.76-7.43,21.06-18.45,26.38-31.49h470.96c3.25,0,5.88,2.63,5.88,5.88"/>
        <g>
          <path class="cls-1" d="M567.06,121.66h-19.73c-3.25,0-5.88,2.63-5.88,5.88v107.48c0,13.92-11.27,25.19-25.19,25.19h0s-485.62,0-485.62,0c-3.25,0-5.88,2.63-5.88,5.88h0c0,14.14,11.47,25.61,25.61,25.61h466.3c31.12-.23,56.27-25.51,56.27-56.68v-107.48c0-3.25-2.63-5.88-5.88-5.88Z"/>
          <path class="cls-1" d="M547.33,79.81h19.73c3.25,0,5.88,2.64,5.88,5.88v19.73c0,3.25-2.64,5.88-5.88,5.88h-19.73c-3.25,0-5.88-2.64-5.88-5.88v-19.73c0-3.25,2.64-5.88,5.88-5.88Z"/>
        </g>
        <path class="cls-1" d="M360.12,335.79v-3.09c0-1.09-.88-1.97-1.97-1.97h-3.27c-1.09,0-1.97.88-1.97,1.97v30.89c0,1.09.88,1.97,1.97,1.97h3.27c1.09,0,1.97-.88,1.97-1.97v-16.36c0-3.54.73-6.03,2.18-7.46,1.22-1.21,3.27-1.9,6.38-2.1,1.04-.06,1.86-.92,1.86-1.96v-3.45c0-1.17-1.03-2.12-2.19-1.96-1.5.22-2.85.66-4.04,1.34-1.75.99-3.15,2.37-4.2,4.14"/>
        <path class="cls-1" d="M408.29,332.31c-2.57-1.43-5.5-2.15-8.79-2.15s-6.44.74-9.07,2.21c-2.64,1.48-4.68,3.57-6.13,6.29-1.46,2.72-2.18,5.87-2.18,9.45s.75,6.73,2.24,9.45c1.5,2.72,3.56,4.83,6.19,6.32,2.63,1.5,5.62,2.24,8.94,2.24,4.09,0,7.51-1.02,10.27-3.07,2.76-2.04,4.67-4.67,5.72-7.87h-7.77c-1.6,3.25-4.34,4.87-8.22,4.87-2.7,0-4.97-.84-6.83-2.53-1.85-1.68-2.89-3.92-3.1-6.7h24.84c1.03,0,1.9-.79,1.97-1.82.04-.55.05-1.12.05-1.72,0-3.37-.72-6.35-2.15-8.94-1.43-2.59-3.44-4.6-6.01-6.04M389.64,345.02c.34-2.7,1.39-4.83,3.16-6.41,1.77-1.58,3.9-2.37,6.38-2.37,2.74,0,5.03.8,6.89,2.4,1.85,1.6,2.8,3.73,2.84,6.38h-19.28Z"/>
        <path class="cls-1" d="M456.51,335.79c-1.22-1.6-2.85-2.94-4.9-4.01-2.04-1.07-4.43-1.61-7.17-1.61-3.04,0-5.81.75-8.31,2.24-2.51,1.5-4.49,3.59-5.94,6.29-1.45,2.7-2.18,5.8-2.18,9.29s.73,6.63,2.18,9.39c1.45,2.76,3.42,4.91,5.91,6.45,2.49,1.54,5.23,2.31,8.22,2.31,2.7,0,5.1-.55,7.21-1.64,2.11-1.1,3.77-2.47,4.99-4.11v3.22c0,1.09.88,1.97,1.97,1.97h3.33c1.09,0,1.97-.88,1.97-1.97v-30.89c0-1.09-.88-1.97-1.97-1.97h-3.33c-1.09,0-1.97.88-1.97,1.97v3.09ZM455.03,354.4c-.99,1.79-2.29,3.15-3.89,4.08-1.6.93-3.33,1.39-5.18,1.39s-3.53-.47-5.15-1.42c-1.62-.95-2.93-2.33-3.92-4.14-.99-1.81-1.49-3.92-1.49-6.32s.49-4.48,1.49-6.23c.99-1.75,2.29-3.08,3.89-3.98,1.6-.91,3.33-1.36,5.18-1.36s3.58.46,5.18,1.39c1.6.93,2.9,2.27,3.89,4.05.99,1.77,1.49,3.86,1.49,6.26s-.5,4.5-1.49,6.29"/>
        <path class="cls-1" d="M763.86,335.79c-1.22-1.6-2.85-2.94-4.9-4.01-2.04-1.07-4.43-1.61-7.17-1.61-3.04,0-5.81.75-8.31,2.24-2.51,1.5-4.49,3.59-5.94,6.29-1.46,2.7-2.18,5.8-2.18,9.29s.72,6.63,2.18,9.39c1.45,2.76,3.42,4.91,5.91,6.45,2.49,1.54,5.22,2.31,8.22,2.31,2.7,0,5.1-.55,7.21-1.64,2.11-1.1,3.77-2.47,4.99-4.11v3.22c0,1.09.88,1.97,1.97,1.97h3.33c1.09,0,1.97-.88,1.97-1.97v-30.89c0-1.09-.88-1.97-1.97-1.97h-3.33c-1.09,0-1.97.88-1.97,1.96v3.09ZM762.38,354.4c-.99,1.79-2.29,3.15-3.89,4.08-1.6.93-3.33,1.39-5.18,1.39s-3.53-.47-5.15-1.42c-1.62-.95-2.93-2.33-3.92-4.14-.99-1.81-1.49-3.92-1.49-6.32s.49-4.48,1.49-6.23c.99-1.75,2.28-3.08,3.89-3.98,1.6-.91,3.33-1.36,5.18-1.36s3.58.46,5.18,1.39c1.6.93,2.9,2.27,3.89,4.05.99,1.77,1.49,3.86,1.49,6.26s-.5,4.5-1.49,6.29"/>
        <path class="cls-1" d="M513.09,332.31c-2.57-1.43-5.5-2.15-8.79-2.15s-6.44.74-9.07,2.21c-2.64,1.48-4.68,3.57-6.13,6.29-1.46,2.72-2.18,5.87-2.18,9.45s.75,6.73,2.24,9.45c1.5,2.72,3.56,4.83,6.19,6.32,2.63,1.5,5.62,2.24,8.95,2.24,4.09,0,7.51-1.02,10.27-3.07,2.2-1.63,3.86-3.63,4.98-6,.41-.87-.24-1.87-1.2-1.87h-4.68c-.66,0-1.29.32-1.64.88-1.65,2.66-4.22,3.98-7.73,3.98-2.7,0-4.97-.84-6.83-2.53-1.85-1.68-2.89-3.92-3.1-6.7h24.84c1.03,0,1.9-.79,1.97-1.82.04-.55.05-1.12.05-1.72,0-3.37-.72-6.35-2.15-8.94-1.43-2.59-3.44-4.6-6.01-6.04M494.44,345.02c.34-2.7,1.39-4.83,3.16-6.41,1.77-1.58,3.9-2.37,6.38-2.37,2.74,0,5.03.8,6.89,2.4,1.85,1.6,2.8,3.73,2.84,6.38h-19.28Z"/>
        <path class="cls-1" d="M548.06,316.89c-1.31,0-2.4.44-3.29,1.33-.88.88-1.33,1.98-1.33,3.29s.44,2.4,1.33,3.29c.89.89,1.98,1.33,3.29,1.33s2.34-.44,3.23-1.33c.88-.88,1.33-1.98,1.33-3.29s-.44-2.4-1.33-3.29c-.89-.88-1.96-1.33-3.23-1.33"/>
        <path class="cls-1" d="M546.36,365.56h3.27c1.09,0,1.97-.88,1.97-1.97v-30.9c0-1.08-.88-1.96-1.97-1.96h-3.27c-1.09,0-1.97.88-1.97,1.97v30.89c0,1.09.88,1.97,1.97,1.97"/>
        <path class="cls-1" d="M588.15,331.87c-2.17-1.14-4.63-1.71-7.36-1.71-2.07,0-4.01.4-5.85,1.2-1.83.8-3.34,1.92-4.52,3.35v-2.01c0-1.09-.88-1.97-1.97-1.97h-3.27c-1.09,0-1.97.88-1.97,1.97v30.89c0,1.09.88,1.97,1.97,1.97h3.27c1.09,0,1.97-.88,1.97-1.97v-17.5c0-3.12.79-5.51,2.37-7.17,1.58-1.66,3.72-2.5,6.42-2.5s4.83.83,6.38,2.5c1.56,1.66,2.34,4.06,2.34,7.17v17.5c0,1.09.88,1.97,1.97,1.97h3.21c1.09,0,1.97-.88,1.97-1.97v-18.58c0-3.16-.61-5.86-1.83-8.09-1.22-2.23-2.92-3.92-5.09-5.06"/>
        <path class="cls-1" d="M631.57,331.87c-2.17-1.14-4.63-1.71-7.36-1.71-2.06,0-4.01.4-5.85,1.2-1.84.8-3.34,1.92-4.52,3.35v-2.01c0-1.09-.88-1.97-1.97-1.97h-3.27c-1.09,0-1.97.88-1.97,1.97v30.89c0,1.09.88,1.97,1.97,1.97h3.27c1.09,0,1.97-.88,1.97-1.97v-17.5c0-3.12.79-5.51,2.37-7.17,1.58-1.66,3.72-2.5,6.42-2.5s4.83.83,6.38,2.5c1.56,1.66,2.34,4.06,2.34,7.17v17.5c0,1.09.88,1.97,1.97,1.97h3.21c1.09,0,1.97-.88,1.97-1.97v-18.58c0-3.16-.61-5.86-1.83-8.09-1.22-2.23-2.92-3.92-5.09-5.06"/>
        <path class="cls-1" d="M676.86,332.37c-2.7-1.47-5.71-2.21-9.04-2.21s-6.34.74-9.04,2.21c-2.7,1.48-4.83,3.58-6.38,6.32-1.56,2.74-2.34,5.88-2.34,9.42s.76,6.73,2.28,9.45c1.52,2.72,3.6,4.83,6.26,6.32,2.65,1.5,5.63,2.24,8.91,2.24s6.37-.75,9.14-2.24c2.76-1.5,4.94-3.61,6.54-6.35,1.6-2.74,2.4-5.88,2.4-9.42s-.78-6.68-2.34-9.42c-1.56-2.74-3.69-4.85-6.38-6.32M676.67,354.56c-1.01,1.77-2.33,3.1-3.95,3.98-1.62.88-3.36,1.33-5.22,1.33-2.91,0-5.32-1.02-7.24-3.07-1.92-2.04-2.88-4.94-2.88-8.69,0-2.53.46-4.67,1.39-6.42.93-1.75,2.18-3.07,3.76-3.95,1.58-.89,3.3-1.33,5.15-1.33s3.58.44,5.18,1.33c1.6.88,2.89,2.2,3.86,3.95.97,1.75,1.45,3.89,1.45,6.42s-.51,4.68-1.52,6.45"/>
        <path class="cls-1" d="M710.46,359.11l-9.4-27.06c-.28-.79-1.02-1.32-1.86-1.32h-3.46c-1.38,0-2.33,1.38-1.84,2.66l11.72,30.89c.29.76,1.02,1.27,1.84,1.27h5.88c.82,0,1.55-.5,1.84-1.27l11.77-30.89c.49-1.29-.46-2.67-1.84-2.67h-3.39c-.84,0-1.58.53-1.86,1.32l-9.4,27.06Z"/>
        <path class="cls-1" d="M311.04,338.62c1.45-2.7,3.45-4.79,6.01-6.26,2.55-1.47,5.49-2.2,8.8-2.2,4.19,0,7.66,1,10.41,2.99,2.3,1.67,3.97,3.93,5.02,6.79.31.84-.37,1.73-1.27,1.73h-4.63c-.78,0-1.45-.49-1.81-1.18-.61-1.16-1.45-2.11-2.5-2.85-1.39-.96-3.12-1.44-5.22-1.44-2.93,0-5.27,1.04-7.01,3.11-1.74,2.07-2.61,4.98-2.61,8.71s.87,6.64,2.61,8.74c1.74,2.1,4.08,3.14,7.01,3.14,3.67,0,6.25-1.43,7.72-4.28.36-.7,1.02-1.19,1.81-1.19h4.57c.97,0,1.59,1,1.22,1.89-1.09,2.64-2.75,4.81-5,6.5-2.77,2.07-6.2,3.11-10.31,3.11-3.31,0-6.25-.74-8.8-2.23-2.56-1.49-4.56-3.59-6.01-6.29-1.45-2.71-2.17-5.84-2.17-9.4s.72-6.7,2.17-9.4"/>
      </g>
    </g>
  </g>
</svg>